PathFileType	3	(X/Y/Z)	F:\ViconData\AntennenMessung\Messung1\Session1\ID22.trc
DataRate	CameraRate	NumFrames	NumMarkers	Units	OrigDataRate	OrigDataStartFrame	OrigNumFrames
120.0	120.0	4	70	mm	120.0	928	1060	
Frame#	Time	Ashort			Along			Atop			A4			Bshort			Blong			Btop			B4			Cshort			Clong			Ctop			C4			Dshort			Dlong			Dtop			D4			Eshort			Elong			Etop			E4			Fshort			Flong			Ftop			F4			Gshort			Glong			Gtop			G4			Hshort			Hlong			Htop			H4			I1			I2			I3			I4			I5			WandAshort			WandAlong			WandAtop			WandA4			WandA15			WandBshort			WandB4			WandB5			WandBtop			WandBlong			WandCshort			WandClong			WandCtop			WandC4			WandC5			Acenter			Aantenna			Bcenter			Bantenna			Ccenter			Cantenna			Dcenter			Dantenna			Ecenter			Eantenna			Fcenter			Fantenna			Gcenter			Gantenna			Hcenter			Hantenna			Icenter			Iantenna			
		X1	Y1	Z1	X2	Y2	Z2	X3	Y3	Z3	X4	Y4	Z4	X5	Y5	Z5	X6	Y6	Z6	X7	Y7	Z7	X8	Y8	Z8	X9	Y9	Z9	X10	Y10	Z10	X11	Y11	Z11	X12	Y12	Z12	X13	Y13	Z13	X14	Y14	Z14	X15	Y15	Z15	X16	Y16	Z16	X17	Y17	Z17	X18	Y18	Z18	X19	Y19	Z19	X20	Y20	Z20	X21	Y21	Z21	X22	Y22	Z22	X23	Y23	Z23	X24	Y24	Z24	X25	Y25	Z25	X26	Y26	Z26	X27	Y27	Z27	X28	Y28	Z28	X29	Y29	Z29	X30	Y30	Z30	X31	Y31	Z31	X32	Y32	Z32	X33	Y33	Z33	X34	Y34	Z34	X35	Y35	Z35	X36	Y36	Z36	X37	Y37	Z37	X38	Y38	Z38	X39	Y39	Z39	X40	Y40	Z40	X41	Y41	Z41	X42	Y42	Z42	X43	Y43	Z43	X44	Y44	Z44	X45	Y45	Z45	X46	Y46	Z46	X47	Y47	Z47	X48	Y48	Z48	X49	Y49	Z49	X50	Y50	Z50	X51	Y51	Z51	X52	Y52	Z52	X53	Y53	Z53	X54	Y54	Z54	X55	Y55	Z55	X56	Y56	Z56	X57	Y57	Z57	X58	Y58	Z58	X59	Y59	Z59	X60	Y60	Z60	X61	Y61	Z61	X62	Y62	Z62	X63	Y63	Z63	X64	Y64	Z64	X65	Y65	Z65	X66	Y66	Z66	X67	Y67	Z67	X68	Y68	Z68	X69	Y69	Z69	X70	Y70	Z70	
928	7.725	-1038.2319	214.70184	-1644.1105	-1109.5159	203.8799	-1599.5107	-1063.7119	173.41216	-1625.5382	-1054.1343	262.3378	-1634.869	-1352.5769	235.11742	1003.5045	-1281.3516	227.47641	1052.1221	-1322.6532	194.04663	1020.8559	-1284.4702	287.97635	1052.6343	813.94501	187.67738	1209.2845	892.45197	178.69901	1178.897	844.52161	145.42694	1198.3455	861.15564	292.30356	1168.3679	1115.8324	210.06392	-1401.8585	1056.2885	194.09941	-1460.2003	1094.8942	162.04057	-1423.8408	1069.6776	239.51265	-1426.2631	-1204.5868	1686.0209	-1563.1705	-1129.1316	1688.3688	-1605.9974	-1173.2346	1724.5199	-1581.8989	-1133.9969	1581.0986	-1603.9413	-1239.5609	1699.0214	1119.4862	-1309.3933	1698.8344	1071.968	-1270.5006	1736.3556	1096.9354	-1245.635	1592.9045	1110.7255	988.84497	1664.187	1162.1282	957.27039	1700.5715	1183.787	922.04504	1662.2834	1214.8597	939.80164	1659.4448	1159.7043	999.07312	1668.4133	-1579.3885	1058.939	1670.1771	-1518.7485	1025.0005	1708.0844	-1551.1959	1059.2928	1672.226	-1585.5646	-272.48361	1636.8928	-231.5519	-187.72124	1640.1516	-237.80595	-235.60942	1675.2896	-233.66698	-233.31624	1637.7985	-202.3847	-239.27893	1639.2573	-281.11285																																														-1068.8916	210.04724	-1624.9277	-1074.3507	248.65791	-1624.2844	-1321.3242	231.76466	1024.8372	-1319.9587	270.52542	1028.9283	848.03448	183.77875	1196.0895	851.58582	222.54973	1193.8092	1088.5908	202.7601	-1428.55	1082.6635	241.0518	-1432.9785	-1171.9515	1687.0363	-1581.6935	-1170.6176	1648.0597	-1581.48	-1271.1287	1698.9366	1098.0055	-1271.7828	1659.9581	1099.1204	952.8324	1705.6854	1186.8312	972.79657	1733.8296	1168.6561	1026.5304	1669.2222	-1551.576	1028.0646	1630.2543	-1551.9573	-234.24187	1638.363	-234.37349	-232.79878	1599.3969	-235.11906
929	7.7333333	-1038.2175	214.66458	-1644.0908	-1109.5507	203.98198	-1599.4735	-1063.6447	173.07767	-1625.8374	-1054.1061	262.40036	-1634.8695	-1352.5468	235.19768	1003.3982	-1281.3865	227.35213	1052.1276	-1322.6195	194.03369	1020.8792	-1284.6616	287.87018	1052.7699	813.91864	187.80157	1209.3489	892.40448	178.65524	1178.8884	844.5166	145.42522	1198.2063	861.10956	292.37646	1168.4037	1115.835	210.04929	-1401.8627	1056.2845	194.15956	-1460.2075	1094.8696	162.02684	-1423.8267	1069.6354	239.5085	-1426.2534	-1204.578	1686.0236	-1563.1571	-1129.134	1688.3646	-1605.9999	-1173.2238	1724.5103	-1581.8969	-1134.021	1581.1392	-1603.9692	-1239.5575	1699.0143	1119.4849	-1309.4509	1698.8949	1071.9822	-1270.4994	1736.3649	1096.9489	-1245.6895	1592.9482	1110.7451	988.89215	1664.2192	1162.1317	957.31354	1700.5377	1183.7351	921.92352	1662.2919	1214.8037	939.86774	1659.439	1159.712	999.04492	1668.424	-1579.4219	1058.9332	1670.173	-1518.7375	1025.0052	1708.0782	-1551.1837	1059.3059	1672.182	-1585.4662	-272.49597	1636.9042	-231.54616	-187.73807	1640.1375	-237.79265	-235.60165	1675.3064	-233.66945	-233.3304	1637.8129	-202.39656	-239.29411	1639.2596	-281.11099																																														-1068.6863	210.10168	-1625.0331	-1073.947	248.73611	-1624.194	-1321.1938	231.74094	1024.8682	-1319.7285	270.49713	1028.9681	848.15723	183.81157	1196.0609	851.83392	222.57738	1193.8942	1088.6093	202.7847	-1428.537	1082.7266	241.08357	-1432.9633	-1171.9431	1687.0361	-1581.6895	-1170.6112	1648.0594	-1581.474	-1271.156	1698.9603	1098.0092	-1271.8402	1659.9819	1099.1139	952.77771	1705.7542	1186.8381	972.76904	1733.9148	1168.7185	1026.5314	1669.2266	-1551.5699	1028.0621	1630.2585	-1551.9575	-234.24365	1638.3633	-234.36528	-232.81126	1599.3965	-235.09924
930	7.7416667	-1038.193	214.66376	-1644.0901	-1109.5146	203.82599	-1599.4707	-1063.9932	173.1487	-1625.5369	-1054.1447	262.41095	-1634.8857	-1352.5931	235.16559	1003.4635	-1281.3594	227.3791	1052.1382	-1322.5793	194.092	1020.8241	-1284.3849	287.90845	1052.522	814.00037	187.62662	1209.2894	892.43896	178.61896	1179.0099	844.56512	145.39679	1198.3046	861.14771	292.44769	1168.4581	1115.8447	210.05927	-1401.8525	1056.2825	194.11823	-1460.2249	1094.8411	161.96649	-1423.8079	1069.6996	239.5435	-1426.2692	-1204.5771	1686.0167	-1563.1753	-1129.1453	1688.3938	-1606.0419	-1173.2216	1724.504	-1581.8923	-1134.0084	1581.1136	-1603.9661	-1239.5851	1699.0555	1119.4951	-1309.3745	1698.8037	1071.9613	-1270.459	1736.3059	1096.9132	-1245.6835	1592.9354	1110.7407	988.84668	1664.1854	1162.1144	957.29932	1700.5636	1183.7961	921.92609	1662.2939	1214.7784	939.82312	1659.4823	1159.7185	999.05048	1668.4211	-1579.411	1058.9495	1670.1788	-1518.7404	1024.9855	1708.0704	-1551.1957	1059.2955	1672.1694	-1585.4562	-272.5069	1636.9172	-231.54385	-187.73486	1640.1517	-237.79951	-235.5862	1675.2651	-233.6635	-233.34383	1637.8412	-202.38841	-239.28053	1639.2688	-281.11707																																														-1069.0989	209.96741	-1624.755	-1074.4547	248.5892	-1623.9348	-1321.2406	231.73846	1024.887	-1319.8623	270.48907	1029.0692	848.12067	183.70833	1196.118	851.71887	222.4789	1193.9054	1088.5859	202.76384	-1428.5665	1082.7145	241.05966	-1433.0337	-1171.9435	1687.0449	-1581.7205	-1170.6134	1648.0682	-1581.5415	-1271.0896	1698.9417	1098.0372	-1271.7476	1659.965	1099.2097	952.82513	1705.7227	1186.8711	972.85504	1733.8748	1168.7806	1026.5211	1669.2272	-1551.5864	1028.0619	1630.2596	-1551.9785	-234.23074	1638.3776	-234.36838	-232.79892	1599.411	-235.11301
931	7.75	-1038.2104	214.66217	-1644.0826	-1109.5155	203.81955	-1599.4796	-1063.5918	173.14943	-1625.8119	-1054.1616	262.4075	-1634.8669	-1352.5359	235.1615	1003.5455	-1281.349	227.38809	1052.1367	-1322.614	193.99202	1020.9197	-1284.4619	287.95023	1052.6309	813.9881	187.67935	1209.298	892.38104	178.56656	1178.9121	844.55212	145.46802	1198.3157	861.18353	292.39795	1168.3678	1115.838	210.06136	-1401.8594	1056.2692	194.19386	-1460.2917	1094.9001	162.09184	-1423.8107	1069.7024	239.57161	-1426.2317	-1204.5735	1686.0226	-1563.1846	-1129.1683	1688.355	-1605.9645	-1173.2178	1724.5072	-1581.8981	-1133.9849	1581.0889	-1603.95	-1239.605	1699.1025	1119.5085	-1309.4154	1698.8193	1071.9629	-1270.4978	1736.3572	1096.9329	-1245.6263	1592.8807	1110.7079	988.85516	1664.2227	1162.1317	957.28705	1700.5999	1183.7748	921.90173	1662.2593	1214.8295	939.84845	1659.4735	1159.7126	999.05029	1668.4227	-1579.4246	1058.928	1670.1639	-1518.7401	1024.9971	1708.0778	-1551.2025	1059.3079	1672.1825	-1585.4625	-272.50092	1636.9059	-231.55255	-187.74908	1640.1398	-237.80962	-235.61215	1675.2928	-233.67378	-233.3354	1637.8192	-202.37759	-239.27792	1639.2594	-281.11945																																														-1068.6985	210.02612	-1625.0115	-1074.0471	248.64854	-1624.1732	-1321.2222	231.74214	1024.9197	-1319.7932	270.49899	1029.0264	848.12561	183.71103	1196.0659	851.74792	222.47542	1193.7856	1088.6644	202.82306	-1428.5145	1082.8008	241.12517	-1432.9377	-1171.9441	1687.0317	-1581.6963	-1170.6195	1648.0548	-1581.4863	-1271.1085	1698.9746	1098.0524	-1271.7454	1659.9973	1099.2196	952.82123	1705.746	1186.8364	972.8338	1733.8926	1168.7184	1026.5172	1669.2214	-1551.5874	1028.0417	1630.2531	-1551.9735	-234.25494	1638.3652	-234.37616	-232.8228	1599.3986	-235.11736
